<mxfile host="app.diagrams.net" modified="2021-12-15T06:35:18.722Z" agent="5.0 (Macintosh; Intel Mac OS X 10_15_7) AppleWebKit/537.36 (KHTML, like Gecko) Chrome/96.0.4664.93 Safari/537.36" etag="HteWj-aMnuODG9wrRZ8Z" version="15.9.6" type="github">
  <diagram id="-SPJy0hRLTaTt6_wfEJj" name="Page-1">
    <mxGraphModel dx="1771" dy="980" grid="1" gridSize="10" guides="1" tooltips="1" connect="1" arrows="1" fold="1" page="1" pageScale="1" pageWidth="827" pageHeight="1169" math="0" shadow="0">
      <root>
        <mxCell id="0" />
        <mxCell id="1" parent="0" />
        <mxCell id="oG8ktEmDvnc897RTKp91-1" value="&lt;b&gt;&lt;font style=&quot;font-size: 18px&quot; color=&quot;#007fff&quot;&gt;BE raw data&lt;/font&gt;&lt;/b&gt;" style="rounded=1;whiteSpace=wrap;html=1;" parent="1" vertex="1">
          <mxGeometry x="13" y="218" width="120" height="60" as="geometry" />
        </mxCell>
        <mxCell id="oG8ktEmDvnc897RTKp91-2" value="&lt;h2&gt;&lt;font color=&quot;#ff3333&quot;&gt;FE nodes data&lt;/font&gt;&lt;/h2&gt;" style="rounded=1;whiteSpace=wrap;html=1;" parent="1" vertex="1">
          <mxGeometry x="343" y="218" width="120" height="60" as="geometry" />
        </mxCell>
        <mxCell id="oG8ktEmDvnc897RTKp91-3" value="" style="endArrow=classic;html=1;rounded=1;fontSize=18;" parent="1" edge="1">
          <mxGeometry relative="1" as="geometry">
            <mxPoint x="136" y="247.5" as="sourcePoint" />
            <mxPoint x="336" y="248" as="targetPoint" />
          </mxGeometry>
        </mxCell>
        <mxCell id="oG8ktEmDvnc897RTKp91-4" value="utils/preprocessContentJson" style="edgeLabel;resizable=0;html=1;align=center;verticalAlign=middle;rounded=1;fontSize=14;" parent="oG8ktEmDvnc897RTKp91-3" connectable="0" vertex="1">
          <mxGeometry relative="1" as="geometry">
            <mxPoint y="-17" as="offset" />
          </mxGeometry>
        </mxCell>
        <mxCell id="oG8ktEmDvnc897RTKp91-5" value="" style="endArrow=classic;html=1;rounded=1;fontSize=14;" parent="1" edge="1">
          <mxGeometry relative="1" as="geometry">
            <mxPoint x="333" y="258" as="sourcePoint" />
            <mxPoint x="133" y="258" as="targetPoint" />
          </mxGeometry>
        </mxCell>
        <mxCell id="oG8ktEmDvnc897RTKp91-6" value="utils/generateContentJson" style="edgeLabel;resizable=0;html=1;align=center;verticalAlign=middle;rounded=1;fontSize=14;" parent="oG8ktEmDvnc897RTKp91-5" connectable="0" vertex="1">
          <mxGeometry relative="1" as="geometry">
            <mxPoint y="13" as="offset" />
          </mxGeometry>
        </mxCell>
        <mxCell id="oG8ktEmDvnc897RTKp91-7" value="" style="swimlane;startSize=0;rounded=1;fontSize=14;" parent="1" vertex="1">
          <mxGeometry x="572" y="163" width="200" height="170" as="geometry" />
        </mxCell>
        <mxCell id="oG8ktEmDvnc897RTKp91-10" value="" style="edgeStyle=orthogonalEdgeStyle;rounded=1;orthogonalLoop=1;jettySize=auto;html=1;fontSize=14;" parent="oG8ktEmDvnc897RTKp91-7" edge="1">
          <mxGeometry relative="1" as="geometry">
            <mxPoint x="101" y="30" as="sourcePoint" />
            <mxPoint x="101" y="60" as="targetPoint" />
          </mxGeometry>
        </mxCell>
        <mxCell id="oG8ktEmDvnc897RTKp91-8" value="" style="whiteSpace=wrap;html=1;rounded=1;fontSize=14;" parent="oG8ktEmDvnc897RTKp91-7" vertex="1">
          <mxGeometry x="80" y="10" width="40" height="20" as="geometry" />
        </mxCell>
        <mxCell id="oG8ktEmDvnc897RTKp91-9" value="Node Before Edit" style="ellipse;whiteSpace=wrap;html=1;fontSize=14;rounded=1;fillColor=#CCFFFF;" parent="oG8ktEmDvnc897RTKp91-7" vertex="1">
          <mxGeometry x="47.5" y="60" width="105" height="40" as="geometry" />
        </mxCell>
        <mxCell id="oG8ktEmDvnc897RTKp91-13" value="Flow Builder&lt;br&gt;" style="text;html=1;strokeColor=none;fillColor=none;align=center;verticalAlign=middle;whiteSpace=wrap;rounded=0;fontSize=14;" parent="oG8ktEmDvnc897RTKp91-7" vertex="1">
          <mxGeometry y="20" width="60" height="30" as="geometry" />
        </mxCell>
        <mxCell id="oG8ktEmDvnc897RTKp91-14" value="r" style="endArrow=classic;html=1;rounded=1;fontSize=14;" parent="1" edge="1">
          <mxGeometry relative="1" as="geometry">
            <mxPoint x="463" y="247.5" as="sourcePoint" />
            <mxPoint x="563" y="247.5" as="targetPoint" />
          </mxGeometry>
        </mxCell>
        <mxCell id="oG8ktEmDvnc897RTKp91-15" value="render" style="edgeLabel;resizable=0;html=1;align=center;verticalAlign=middle;rounded=1;fontSize=14;" parent="oG8ktEmDvnc897RTKp91-14" connectable="0" vertex="1">
          <mxGeometry relative="1" as="geometry">
            <mxPoint x="-6" as="offset" />
          </mxGeometry>
        </mxCell>
        <mxCell id="oG8ktEmDvnc897RTKp91-17" value="" style="shape=umlActor;verticalLabelPosition=bottom;verticalAlign=top;html=1;outlineConnect=0;rounded=1;fontSize=14;" parent="1" vertex="1">
          <mxGeometry x="820" y="193" width="15" height="30" as="geometry" />
        </mxCell>
        <mxCell id="oG8ktEmDvnc897RTKp91-21" value="" style="endArrow=classic;html=1;rounded=1;fontSize=14;strokeColor=default;endFill=1;" parent="1" edge="1">
          <mxGeometry relative="1" as="geometry">
            <mxPoint x="777.5" y="240" as="sourcePoint" />
            <mxPoint x="877.5" y="240" as="targetPoint" />
          </mxGeometry>
        </mxCell>
        <mxCell id="oG8ktEmDvnc897RTKp91-22" value="Modify" style="edgeLabel;resizable=0;html=1;align=center;verticalAlign=middle;rounded=1;fontSize=14;" parent="oG8ktEmDvnc897RTKp91-21" connectable="0" vertex="1">
          <mxGeometry relative="1" as="geometry" />
        </mxCell>
        <mxCell id="oG8ktEmDvnc897RTKp91-26" value="save" style="text;html=1;strokeColor=none;fillColor=none;align=center;verticalAlign=middle;whiteSpace=wrap;rounded=0;fontSize=14;" parent="1" vertex="1">
          <mxGeometry x="1115" y="174" width="60" height="30" as="geometry" />
        </mxCell>
        <mxCell id="oG8ktEmDvnc897RTKp91-27" value="discard" style="text;html=1;strokeColor=none;fillColor=none;align=center;verticalAlign=middle;whiteSpace=wrap;rounded=0;fontSize=14;" parent="1" vertex="1">
          <mxGeometry x="1121" y="274" width="60" height="30" as="geometry" />
        </mxCell>
        <mxCell id="oG8ktEmDvnc897RTKp91-36" value="" style="strokeWidth=1;html=1;shape=mxgraph.flowchart.annotation_2;align=left;labelPosition=right;pointerEvents=1;rounded=1;fontSize=14;" parent="1" vertex="1">
          <mxGeometry x="1088" y="190" width="40" height="100" as="geometry" />
        </mxCell>
        <mxCell id="oG8ktEmDvnc897RTKp91-39" value="" style="swimlane;startSize=0;rounded=1;fontSize=14;" parent="1" vertex="1">
          <mxGeometry x="881" y="163" width="200" height="170" as="geometry" />
        </mxCell>
        <mxCell id="oG8ktEmDvnc897RTKp91-40" value="" style="edgeStyle=orthogonalEdgeStyle;rounded=1;orthogonalLoop=1;jettySize=auto;html=1;fontSize=14;" parent="oG8ktEmDvnc897RTKp91-39" edge="1">
          <mxGeometry relative="1" as="geometry">
            <mxPoint x="101" y="30" as="sourcePoint" />
            <mxPoint x="101" y="60" as="targetPoint" />
          </mxGeometry>
        </mxCell>
        <mxCell id="oG8ktEmDvnc897RTKp91-41" value="" style="whiteSpace=wrap;html=1;rounded=1;fontSize=14;" parent="oG8ktEmDvnc897RTKp91-39" vertex="1">
          <mxGeometry x="80" y="10" width="40" height="20" as="geometry" />
        </mxCell>
        <mxCell id="oG8ktEmDvnc897RTKp91-45" value="Flow Builder&lt;br&gt;" style="text;html=1;strokeColor=none;fillColor=none;align=center;verticalAlign=middle;whiteSpace=wrap;rounded=0;fontSize=14;" parent="oG8ktEmDvnc897RTKp91-39" vertex="1">
          <mxGeometry y="20" width="60" height="30" as="geometry" />
        </mxCell>
        <mxCell id="oG8ktEmDvnc897RTKp91-66" value="Node after Edit" style="ellipse;whiteSpace=wrap;html=1;fontSize=14;rounded=1;fillColor=#CCFFFF;" parent="oG8ktEmDvnc897RTKp91-39" vertex="1">
          <mxGeometry x="54" y="59" width="95" height="41" as="geometry" />
        </mxCell>
        <mxCell id="oG8ktEmDvnc897RTKp91-46" value="&lt;h2&gt;&lt;font color=&quot;#ff8000&quot;&gt;Data in Graph&lt;/font&gt;&lt;/h2&gt;" style="rounded=1;whiteSpace=wrap;html=1;" parent="1" vertex="1">
          <mxGeometry x="921" y="400" width="120" height="60" as="geometry" />
        </mxCell>
        <mxCell id="oG8ktEmDvnc897RTKp91-52" value="&lt;h2&gt;&lt;font color=&quot;#ff8000&quot;&gt;Data in Graph&lt;/font&gt;&lt;/h2&gt;" style="rounded=1;whiteSpace=wrap;html=1;" parent="1" vertex="1">
          <mxGeometry x="612" y="400" width="120" height="60" as="geometry" />
        </mxCell>
        <mxCell id="oG8ktEmDvnc897RTKp91-55" value="" style="edgeStyle=elbowEdgeStyle;elbow=horizontal;endArrow=classic;html=1;rounded=1;fontSize=14;strokeColor=default;exitX=0.5;exitY=0;exitDx=0;exitDy=0;entryX=0.5;entryY=0;entryDx=0;entryDy=0;" parent="1" source="oG8ktEmDvnc897RTKp91-26" target="oG8ktEmDvnc897RTKp91-2" edge="1">
          <mxGeometry width="50" height="50" relative="1" as="geometry">
            <mxPoint x="850" y="360" as="sourcePoint" />
            <mxPoint x="900" y="310" as="targetPoint" />
            <Array as="points">
              <mxPoint x="780" y="80" />
              <mxPoint x="800" y="80" />
            </Array>
          </mxGeometry>
        </mxCell>
        <mxCell id="oG8ktEmDvnc897RTKp91-57" value="Update &lt;font color=&quot;#ff8000&quot;&gt;new Data in Graph&lt;/font&gt; to &lt;font color=&quot;#ff3333&quot;&gt;FE nodes data&lt;/font&gt;" style="text;html=1;strokeColor=none;fillColor=none;align=center;verticalAlign=middle;whiteSpace=wrap;rounded=0;fontSize=14;" parent="1" vertex="1">
          <mxGeometry x="490" y="50" width="640" height="30" as="geometry" />
        </mxCell>
        <mxCell id="oG8ktEmDvnc897RTKp91-59" value="" style="edgeStyle=elbowEdgeStyle;elbow=horizontal;endArrow=classic;html=1;rounded=1;fontSize=14;fontColor=#007FFF;strokeColor=default;exitX=0.5;exitY=1;exitDx=0;exitDy=0;entryX=0.5;entryY=1;entryDx=0;entryDy=0;" parent="1" source="oG8ktEmDvnc897RTKp91-27" target="oG8ktEmDvnc897RTKp91-52" edge="1">
          <mxGeometry width="50" height="50" relative="1" as="geometry">
            <mxPoint x="600" y="290" as="sourcePoint" />
            <mxPoint x="650" y="240" as="targetPoint" />
            <Array as="points">
              <mxPoint x="890" y="520" />
            </Array>
          </mxGeometry>
        </mxCell>
        <mxCell id="oG8ktEmDvnc897RTKp91-60" value="Revert changes in&lt;font color=&quot;#ff3333&quot;&gt;&amp;nbsp;&lt;/font&gt;&lt;font color=&quot;#ff8000&quot;&gt;Data in Graph&lt;/font&gt;" style="text;html=1;strokeColor=none;fillColor=none;align=center;verticalAlign=middle;whiteSpace=wrap;rounded=0;fontSize=14;" parent="1" vertex="1">
          <mxGeometry x="572" y="520" width="640" height="30" as="geometry" />
        </mxCell>
        <mxCell id="oG8ktEmDvnc897RTKp91-62" value="" style="shape=link;html=1;rounded=1;fontSize=14;fontColor=#FF8000;startArrow=open;startFill=0;endArrow=classic;endFill=1;strokeColor=default;entryX=0.5;entryY=0;entryDx=0;entryDy=0;" parent="1" source="oG8ktEmDvnc897RTKp91-39" target="oG8ktEmDvnc897RTKp91-46" edge="1">
          <mxGeometry width="100" relative="1" as="geometry">
            <mxPoint x="570" y="200" as="sourcePoint" />
            <mxPoint x="670" y="200" as="targetPoint" />
          </mxGeometry>
        </mxCell>
        <mxCell id="oG8ktEmDvnc897RTKp91-65" value="" style="shape=link;html=1;rounded=1;fontSize=14;fontColor=#FF8000;startArrow=open;startFill=0;endArrow=classic;endFill=1;strokeColor=default;entryX=0.5;entryY=0;entryDx=0;entryDy=0;exitX=0.5;exitY=1;exitDx=0;exitDy=0;" parent="1" source="oG8ktEmDvnc897RTKp91-7" target="oG8ktEmDvnc897RTKp91-52" edge="1">
          <mxGeometry width="100" relative="1" as="geometry">
            <mxPoint x="570" y="290" as="sourcePoint" />
            <mxPoint x="670" y="290" as="targetPoint" />
          </mxGeometry>
        </mxCell>
        <mxCell id="1HdDyyTmz97uRuwPHuVr-1" value="&lt;b&gt;&lt;font style=&quot;font-size: 18px&quot; color=&quot;#007fff&quot;&gt;BE raw data&lt;/font&gt;&lt;/b&gt;" style="rounded=1;whiteSpace=wrap;html=1;" vertex="1" parent="1">
          <mxGeometry x="10" y="808" width="120" height="60" as="geometry" />
        </mxCell>
        <mxCell id="1HdDyyTmz97uRuwPHuVr-2" value="&lt;h2&gt;&lt;font color=&quot;#ff3333&quot;&gt;FE graph data&lt;/font&gt;&lt;/h2&gt;" style="rounded=1;whiteSpace=wrap;html=1;" vertex="1" parent="1">
          <mxGeometry x="340" y="808" width="120" height="60" as="geometry" />
        </mxCell>
        <mxCell id="1HdDyyTmz97uRuwPHuVr-3" value="" style="endArrow=classic;html=1;rounded=1;fontSize=18;" edge="1" parent="1">
          <mxGeometry relative="1" as="geometry">
            <mxPoint x="133" y="837.5" as="sourcePoint" />
            <mxPoint x="333" y="838" as="targetPoint" />
          </mxGeometry>
        </mxCell>
        <mxCell id="1HdDyyTmz97uRuwPHuVr-4" value="utils/preprocessContentJson" style="edgeLabel;resizable=0;html=1;align=center;verticalAlign=middle;rounded=1;fontSize=14;" connectable="0" vertex="1" parent="1HdDyyTmz97uRuwPHuVr-3">
          <mxGeometry relative="1" as="geometry">
            <mxPoint y="-17" as="offset" />
          </mxGeometry>
        </mxCell>
        <mxCell id="1HdDyyTmz97uRuwPHuVr-5" value="" style="endArrow=classic;html=1;rounded=1;fontSize=14;" edge="1" parent="1">
          <mxGeometry relative="1" as="geometry">
            <mxPoint x="330" y="848" as="sourcePoint" />
            <mxPoint x="130" y="848" as="targetPoint" />
          </mxGeometry>
        </mxCell>
        <mxCell id="1HdDyyTmz97uRuwPHuVr-6" value="utils/generateContentJson" style="edgeLabel;resizable=0;html=1;align=center;verticalAlign=middle;rounded=1;fontSize=14;" connectable="0" vertex="1" parent="1HdDyyTmz97uRuwPHuVr-5">
          <mxGeometry relative="1" as="geometry">
            <mxPoint y="13" as="offset" />
          </mxGeometry>
        </mxCell>
        <mxCell id="1HdDyyTmz97uRuwPHuVr-7" value="" style="swimlane;startSize=0;rounded=1;fontSize=14;" vertex="1" parent="1">
          <mxGeometry x="569" y="753" width="200" height="170" as="geometry" />
        </mxCell>
        <mxCell id="1HdDyyTmz97uRuwPHuVr-8" value="" style="edgeStyle=orthogonalEdgeStyle;rounded=1;orthogonalLoop=1;jettySize=auto;html=1;fontSize=14;" edge="1" parent="1HdDyyTmz97uRuwPHuVr-7">
          <mxGeometry relative="1" as="geometry">
            <mxPoint x="101" y="30" as="sourcePoint" />
            <mxPoint x="101" y="60" as="targetPoint" />
          </mxGeometry>
        </mxCell>
        <mxCell id="1HdDyyTmz97uRuwPHuVr-9" value="" style="whiteSpace=wrap;html=1;rounded=1;fontSize=14;" vertex="1" parent="1HdDyyTmz97uRuwPHuVr-7">
          <mxGeometry x="80" y="10" width="40" height="20" as="geometry" />
        </mxCell>
        <mxCell id="1HdDyyTmz97uRuwPHuVr-11" value="Flow Builder&lt;br&gt;" style="text;html=1;strokeColor=none;fillColor=none;align=center;verticalAlign=middle;whiteSpace=wrap;rounded=0;fontSize=14;" vertex="1" parent="1HdDyyTmz97uRuwPHuVr-7">
          <mxGeometry y="20" width="60" height="30" as="geometry" />
        </mxCell>
        <mxCell id="1HdDyyTmz97uRuwPHuVr-33" value="" style="ellipse;whiteSpace=wrap;html=1;" vertex="1" parent="1HdDyyTmz97uRuwPHuVr-7">
          <mxGeometry x="70" y="61" width="60" height="29" as="geometry" />
        </mxCell>
        <mxCell id="1HdDyyTmz97uRuwPHuVr-12" value="r" style="endArrow=classic;html=1;rounded=1;fontSize=14;" edge="1" parent="1">
          <mxGeometry relative="1" as="geometry">
            <mxPoint x="460" y="837.5" as="sourcePoint" />
            <mxPoint x="560" y="837.5" as="targetPoint" />
          </mxGeometry>
        </mxCell>
        <mxCell id="1HdDyyTmz97uRuwPHuVr-13" value="render" style="edgeLabel;resizable=0;html=1;align=center;verticalAlign=middle;rounded=1;fontSize=14;" connectable="0" vertex="1" parent="1HdDyyTmz97uRuwPHuVr-12">
          <mxGeometry relative="1" as="geometry">
            <mxPoint x="-6" as="offset" />
          </mxGeometry>
        </mxCell>
        <mxCell id="1HdDyyTmz97uRuwPHuVr-14" value="" style="shape=umlActor;verticalLabelPosition=bottom;verticalAlign=top;html=1;outlineConnect=0;rounded=1;fontSize=14;" vertex="1" parent="1">
          <mxGeometry x="817" y="783" width="15" height="30" as="geometry" />
        </mxCell>
        <mxCell id="1HdDyyTmz97uRuwPHuVr-15" value="" style="endArrow=classic;html=1;rounded=1;fontSize=14;strokeColor=default;endFill=1;" edge="1" parent="1">
          <mxGeometry relative="1" as="geometry">
            <mxPoint x="774.5" y="830" as="sourcePoint" />
            <mxPoint x="874.5" y="830" as="targetPoint" />
          </mxGeometry>
        </mxCell>
        <mxCell id="1HdDyyTmz97uRuwPHuVr-16" value="Modify" style="edgeLabel;resizable=0;html=1;align=center;verticalAlign=middle;rounded=1;fontSize=14;" connectable="0" vertex="1" parent="1HdDyyTmz97uRuwPHuVr-15">
          <mxGeometry relative="1" as="geometry" />
        </mxCell>
        <mxCell id="1HdDyyTmz97uRuwPHuVr-17" value="save" style="text;html=1;strokeColor=none;fillColor=none;align=center;verticalAlign=middle;whiteSpace=wrap;rounded=0;fontSize=14;" vertex="1" parent="1">
          <mxGeometry x="1112" y="764" width="60" height="30" as="geometry" />
        </mxCell>
        <mxCell id="1HdDyyTmz97uRuwPHuVr-18" value="discard" style="text;html=1;strokeColor=none;fillColor=none;align=center;verticalAlign=middle;whiteSpace=wrap;rounded=0;fontSize=14;" vertex="1" parent="1">
          <mxGeometry x="1118" y="864" width="60" height="30" as="geometry" />
        </mxCell>
        <mxCell id="1HdDyyTmz97uRuwPHuVr-19" value="" style="strokeWidth=1;html=1;shape=mxgraph.flowchart.annotation_2;align=left;labelPosition=right;pointerEvents=1;rounded=1;fontSize=14;" vertex="1" parent="1">
          <mxGeometry x="1085" y="780" width="40" height="100" as="geometry" />
        </mxCell>
        <mxCell id="1HdDyyTmz97uRuwPHuVr-20" value="" style="swimlane;startSize=0;rounded=1;fontSize=14;" vertex="1" parent="1">
          <mxGeometry x="878" y="753" width="200" height="170" as="geometry" />
        </mxCell>
        <mxCell id="1HdDyyTmz97uRuwPHuVr-21" value="" style="edgeStyle=orthogonalEdgeStyle;rounded=1;orthogonalLoop=1;jettySize=auto;html=1;fontSize=14;" edge="1" parent="1HdDyyTmz97uRuwPHuVr-20">
          <mxGeometry relative="1" as="geometry">
            <mxPoint x="101" y="30" as="sourcePoint" />
            <mxPoint x="101" y="60" as="targetPoint" />
          </mxGeometry>
        </mxCell>
        <mxCell id="1HdDyyTmz97uRuwPHuVr-22" value="" style="whiteSpace=wrap;html=1;rounded=1;fontSize=14;" vertex="1" parent="1HdDyyTmz97uRuwPHuVr-20">
          <mxGeometry x="80" y="10" width="40" height="20" as="geometry" />
        </mxCell>
        <mxCell id="1HdDyyTmz97uRuwPHuVr-23" value="Flow Builder&lt;br&gt;" style="text;html=1;strokeColor=none;fillColor=none;align=center;verticalAlign=middle;whiteSpace=wrap;rounded=0;fontSize=14;" vertex="1" parent="1HdDyyTmz97uRuwPHuVr-20">
          <mxGeometry y="20" width="60" height="30" as="geometry" />
        </mxCell>
        <mxCell id="1HdDyyTmz97uRuwPHuVr-36" style="edgeStyle=orthogonalEdgeStyle;rounded=0;orthogonalLoop=1;jettySize=auto;html=1;exitX=0.5;exitY=1;exitDx=0;exitDy=0;entryX=0.5;entryY=0;entryDx=0;entryDy=0;" edge="1" parent="1HdDyyTmz97uRuwPHuVr-20" source="1HdDyyTmz97uRuwPHuVr-34" target="1HdDyyTmz97uRuwPHuVr-35">
          <mxGeometry relative="1" as="geometry" />
        </mxCell>
        <mxCell id="1HdDyyTmz97uRuwPHuVr-34" value="" style="ellipse;whiteSpace=wrap;html=1;" vertex="1" parent="1HdDyyTmz97uRuwPHuVr-20">
          <mxGeometry x="70" y="61.5" width="60" height="29" as="geometry" />
        </mxCell>
        <mxCell id="1HdDyyTmz97uRuwPHuVr-35" value="new node" style="rounded=1;whiteSpace=wrap;html=1;fillColor=#CCFFFF;" vertex="1" parent="1HdDyyTmz97uRuwPHuVr-20">
          <mxGeometry x="70" y="115" width="60" height="25" as="geometry" />
        </mxCell>
        <mxCell id="1HdDyyTmz97uRuwPHuVr-25" value="&lt;h2&gt;&lt;font color=&quot;#ff8000&quot;&gt;Data in Graph&lt;/font&gt;&lt;/h2&gt;" style="rounded=1;whiteSpace=wrap;html=1;" vertex="1" parent="1">
          <mxGeometry x="918" y="990" width="120" height="60" as="geometry" />
        </mxCell>
        <mxCell id="1HdDyyTmz97uRuwPHuVr-26" value="&lt;h2&gt;&lt;font color=&quot;#ff8000&quot;&gt;Data in Graph&lt;/font&gt;&lt;/h2&gt;" style="rounded=1;whiteSpace=wrap;html=1;" vertex="1" parent="1">
          <mxGeometry x="609" y="990" width="120" height="60" as="geometry" />
        </mxCell>
        <mxCell id="1HdDyyTmz97uRuwPHuVr-27" value="" style="edgeStyle=elbowEdgeStyle;elbow=horizontal;endArrow=classic;html=1;rounded=1;fontSize=14;strokeColor=default;exitX=0.5;exitY=0;exitDx=0;exitDy=0;entryX=0.5;entryY=0;entryDx=0;entryDy=0;" edge="1" source="1HdDyyTmz97uRuwPHuVr-17" target="1HdDyyTmz97uRuwPHuVr-2" parent="1">
          <mxGeometry width="50" height="50" relative="1" as="geometry">
            <mxPoint x="847" y="950" as="sourcePoint" />
            <mxPoint x="897" y="900" as="targetPoint" />
            <Array as="points">
              <mxPoint x="777" y="670" />
              <mxPoint x="797" y="670" />
            </Array>
          </mxGeometry>
        </mxCell>
        <mxCell id="1HdDyyTmz97uRuwPHuVr-28" value="Update &lt;font color=&quot;#ff8000&quot;&gt;new Data in Graph&lt;/font&gt; to &lt;font color=&quot;#ff3333&quot;&gt;FE graph data&lt;/font&gt;" style="text;html=1;strokeColor=none;fillColor=none;align=center;verticalAlign=middle;whiteSpace=wrap;rounded=0;fontSize=14;" vertex="1" parent="1">
          <mxGeometry x="487" y="640" width="640" height="30" as="geometry" />
        </mxCell>
        <mxCell id="1HdDyyTmz97uRuwPHuVr-29" value="" style="edgeStyle=elbowEdgeStyle;elbow=horizontal;endArrow=classic;html=1;rounded=1;fontSize=14;fontColor=#007FFF;strokeColor=default;exitX=0.5;exitY=1;exitDx=0;exitDy=0;entryX=0.5;entryY=1;entryDx=0;entryDy=0;" edge="1" source="1HdDyyTmz97uRuwPHuVr-18" target="1HdDyyTmz97uRuwPHuVr-26" parent="1">
          <mxGeometry width="50" height="50" relative="1" as="geometry">
            <mxPoint x="597" y="880" as="sourcePoint" />
            <mxPoint x="647" y="830" as="targetPoint" />
            <Array as="points">
              <mxPoint x="887" y="1110" />
            </Array>
          </mxGeometry>
        </mxCell>
        <mxCell id="1HdDyyTmz97uRuwPHuVr-30" value="Revert changes in&lt;font color=&quot;#ff3333&quot;&gt;&amp;nbsp;&lt;/font&gt;&lt;font color=&quot;#ff8000&quot;&gt;Data in Graph&lt;/font&gt;" style="text;html=1;strokeColor=none;fillColor=none;align=center;verticalAlign=middle;whiteSpace=wrap;rounded=0;fontSize=14;" vertex="1" parent="1">
          <mxGeometry x="569" y="1110" width="640" height="30" as="geometry" />
        </mxCell>
        <mxCell id="1HdDyyTmz97uRuwPHuVr-31" value="" style="shape=link;html=1;rounded=1;fontSize=14;fontColor=#FF8000;startArrow=open;startFill=0;endArrow=classic;endFill=1;strokeColor=default;entryX=0.5;entryY=0;entryDx=0;entryDy=0;" edge="1" source="1HdDyyTmz97uRuwPHuVr-20" target="1HdDyyTmz97uRuwPHuVr-25" parent="1">
          <mxGeometry width="100" relative="1" as="geometry">
            <mxPoint x="567" y="790" as="sourcePoint" />
            <mxPoint x="667" y="790" as="targetPoint" />
          </mxGeometry>
        </mxCell>
        <mxCell id="1HdDyyTmz97uRuwPHuVr-32" value="" style="shape=link;html=1;rounded=1;fontSize=14;fontColor=#FF8000;startArrow=open;startFill=0;endArrow=classic;endFill=1;strokeColor=default;entryX=0.5;entryY=0;entryDx=0;entryDy=0;exitX=0.5;exitY=1;exitDx=0;exitDy=0;" edge="1" source="1HdDyyTmz97uRuwPHuVr-7" target="1HdDyyTmz97uRuwPHuVr-26" parent="1">
          <mxGeometry width="100" relative="1" as="geometry">
            <mxPoint x="567" y="880" as="sourcePoint" />
            <mxPoint x="667" y="880" as="targetPoint" />
          </mxGeometry>
        </mxCell>
      </root>
    </mxGraphModel>
  </diagram>
</mxfile>
